<svg width="1129" height="320" viewBox="0 0 1129 320" fill="none" xmlns="http://www.w3.org/2000/svg">
<g clip-path="url(#clip0_986_1969)">
<mask id="mask0_986_1969" style="mask-type:luminance" maskUnits="userSpaceOnUse" x="0" y="0" width="320" height="320">
<path d="M320 0H0V320H320V0Z" fill="white"/>
</mask>
<g mask="url(#mask0_986_1969)">
<path d="M320 15.7377V304.262H232.918L127.475 146.885V17.3119L232.918 177.836V15.7377H320Z" fill="#D3E9F8"/>
<path d="M17.8359 10.5967C19.8913 11.0139 21.5095 12.6331 21.9268 14.6885H32.6299C33.0471 12.633 34.6662 11.0139 36.7217 10.5967V0H38.8193V10.5967C40.8748 11.0139 42.4939 12.633 42.9111 14.6885H53.6133C54.0305 12.633 55.6496 11.0139 57.7051 10.5967V0H59.8037V10.5967C61.8589 11.0141 63.4773 12.6332 63.8945 14.6885H74.598C75.015 12.6331 76.633 11.014 78.688 10.5967V0H80.787V10.5967C82.842 11.014 84.461 12.6332 84.878 14.6885H95.581C95.998 12.6332 97.617 11.014 99.672 10.5967V0H101.771V10.5967C103.826 11.014 105.445 12.6331 105.861 14.6885H116.459V16.7871H105.861C105.445 18.8423 103.826 20.4607 101.771 20.8779V36.8262C103.826 37.2435 105.445 38.8626 105.861 40.918H115.41V43.0166H105.861C105.445 45.0718 103.826 46.6902 101.771 47.1074V63.0557C103.826 63.4729 105.445 65.0921 105.861 67.1475H115.41V69.246H105.861C105.445 71.301 103.826 72.92 101.771 73.337V89.285C103.826 89.702 105.445 91.322 105.861 93.377H115.41V95.476H105.861C105.445 97.531 103.826 99.149 101.771 99.566V115.515C103.826 115.931 105.445 117.551 105.861 119.606H115.41V121.705H105.861C105.445 123.76 103.826 125.379 101.771 125.796V141.744C103.826 142.161 105.445 143.781 105.861 145.836H115.41V147.935H105.861C105.445 149.99 103.826 151.609 101.771 152.025V167.974C103.826 168.39 105.445 170.01 105.861 172.065H115.41V174.164H105.861C105.445 176.219 103.826 177.838 101.771 178.255V194.203C103.826 194.62 105.445 196.24 105.861 198.295H115.41V200.394H105.861C105.445 202.449 103.826 204.068 101.771 204.484V220.433C103.826 220.849 105.445 222.469 105.861 224.524H115.41V226.623H105.861C105.445 228.678 103.826 230.297 101.771 230.714V246.662C103.826 247.079 105.445 248.699 105.861 250.754H115.41V252.853H105.861C105.445 254.908 103.826 256.527 101.771 256.943V272.892C103.826 273.308 105.445 274.928 105.861 276.983H115.41V279.082H105.861C105.445 281.137 103.826 282.756 101.771 283.173V299.121C103.826 299.538 105.445 301.158 105.861 303.213H115.41V305.312H105.861C105.445 307.367 103.826 308.986 101.771 309.402V320H99.672V309.402C97.617 308.986 95.998 307.367 95.581 305.312H84.878C84.461 307.367 82.842 308.986 80.787 309.402V320H78.688V309.402C76.633 308.986 75.015 307.367 74.598 305.312H63.8945C63.4773 307.367 61.8589 308.986 59.8037 309.402V320H57.7051V309.402C55.6497 308.986 54.0305 307.367 53.6133 305.312H42.9111C42.4939 307.367 40.8747 308.986 38.8193 309.402V320H36.7217V309.402C34.6663 308.986 33.0471 307.367 32.6299 305.312H21.9268C21.5094 307.367 19.8912 308.986 17.8359 309.402V320H15.7373V309.402C13.6821 308.986 12.0637 307.367 11.6465 305.312H0V303.213H11.6465C12.0638 301.158 13.6821 299.538 15.7373 299.121V283.173C13.6822 282.756 12.0637 281.137 11.6465 279.082H0V276.983H11.6465C12.0638 274.928 13.6821 273.308 15.7373 272.892V256.943C13.6822 256.527 12.0637 254.908 11.6465 252.853H0V250.754H11.6465C12.0638 248.699 13.6821 247.079 15.7373 246.662V230.714C13.6822 230.297 12.0638 228.678 11.6465 226.623H0V224.524H11.6465C12.0638 222.469 13.6821 220.849 15.7373 220.433V204.484C13.6822 204.068 12.0638 202.449 11.6465 200.394H0V198.295H11.6465C12.0638 196.24 13.6821 194.62 15.7373 194.203V178.255C13.6822 177.838 12.0638 176.219 11.6465 174.164H0V172.065H11.6465C12.0638 170.01 13.6821 168.39 15.7373 167.974V152.025C13.6822 151.609 12.0638 149.99 11.6465 147.935H0V145.836H11.6465C12.0638 143.781 13.6821 142.161 15.7373 141.744V125.796C13.6822 125.379 12.0638 123.76 11.6465 121.705H0V119.606H11.6465C12.0637 117.551 13.6821 115.931 15.7373 115.515V99.566C13.6822 99.149 12.0638 97.531 11.6465 95.476H0V93.377H11.6465C12.0637 91.322 13.6821 89.703 15.7373 89.285V73.337C13.6822 72.92 12.0638 71.301 11.6465 69.246H0V67.1475H11.6465C12.0637 65.0922 13.6821 63.4731 15.7373 63.0557V47.1074C13.6822 46.69 12.0638 45.0717 11.6465 43.0166H0V40.918H11.6465C12.0637 38.8627 13.6821 37.2436 15.7373 36.8262V20.8779C13.6822 20.4606 12.0638 18.8422 11.6465 16.7871H1.0488V14.6885H11.6465C12.0637 12.6332 13.6821 11.0141 15.7373 10.5967V0H17.8359V10.5967ZM16.7871 302.164C15.6282 302.164 14.6885 303.104 14.6885 304.263C14.6887 305.421 15.6283 306.36 16.7871 306.36C17.9458 306.36 18.8846 305.421 18.8848 304.263C18.8848 303.104 17.9459 302.164 16.7871 302.164ZM37.7705 302.164C36.6116 302.164 35.6719 303.104 35.6719 304.263C35.6721 305.421 36.6117 306.36 37.7705 306.36C38.9293 306.36 39.8689 305.421 39.8691 304.263C39.8691 303.104 38.9294 302.164 37.7705 302.164ZM58.7539 302.164C57.5951 302.164 56.6553 303.104 56.6553 304.263C56.6555 305.421 57.5952 306.36 58.7539 306.36C59.9127 306.36 60.8523 305.421 60.8525 304.263C60.8525 303.104 59.9128 302.164 58.7539 302.164ZM79.737 302.164C78.579 302.164 77.64 303.104 77.64 304.263C77.64 305.421 78.579 306.36 79.737 306.36C80.896 306.36 81.836 305.421 81.836 304.263C81.836 303.104 80.896 302.164 79.737 302.164ZM100.722 302.164C99.563 302.164 98.623 303.104 98.623 304.263C98.623 305.421 99.563 306.36 100.722 306.36C101.88 306.36 102.819 305.421 102.819 304.263C102.819 303.104 101.88 302.164 100.722 302.164ZM21.9268 279.082C21.5094 281.137 19.8912 282.756 17.8359 283.173V299.121C19.8913 299.538 21.5094 301.158 21.9268 303.213H32.6299C33.0472 301.158 34.6663 299.538 36.7217 299.121V283.173C34.6663 282.756 33.0472 281.137 32.6299 279.082H21.9268ZM42.9111 279.082C42.4939 281.137 40.8747 282.756 38.8193 283.173V299.121C40.8747 299.538 42.4938 301.158 42.9111 303.213H53.6133C54.0306 301.158 55.6497 299.538 57.7051 299.121V283.173C55.6497 282.756 54.0305 281.137 53.6133 279.082H42.9111ZM63.8945 279.082C63.4773 281.137 61.8589 282.756 59.8037 283.173V299.121C61.8589 299.538 63.4772 301.158 63.8945 303.213H74.598C75.015 301.158 76.633 299.538 78.688 299.121V283.173C76.633 282.756 75.015 281.137 74.598 279.082H63.8945ZM84.878 279.082C84.461 281.137 82.842 282.756 80.787 283.173V299.121C82.842 299.538 84.461 301.158 84.878 303.213H95.581C95.998 301.158 97.617 299.538 99.672 299.121V283.173C97.617 282.756 95.998 281.137 95.581 279.082H84.878ZM16.7871 275.935C15.6282 275.935 14.6885 276.874 14.6885 278.033C14.6887 279.192 15.6284 280.131 16.7871 280.131C17.9458 280.131 18.8845 279.192 18.8848 278.033C18.8848 276.874 17.9459 275.935 16.7871 275.935ZM37.7705 275.935C36.6116 275.935 35.6719 276.874 35.6719 278.033C35.6721 279.192 36.6118 280.131 37.7705 280.131C38.9293 280.131 39.8689 279.192 39.8691 278.033C39.8691 276.874 38.9294 275.935 37.7705 275.935ZM58.7539 275.935C57.5951 275.935 56.6553 276.874 56.6553 278.033C56.6555 279.192 57.5952 280.131 58.7539 280.131C59.9127 280.131 60.8523 279.192 60.8525 278.033C60.8525 276.874 59.9128 275.935 58.7539 275.935ZM79.737 275.935C78.579 275.935 77.64 276.874 77.64 278.033C77.64 279.192 78.579 280.131 79.737 280.131C80.896 280.131 81.836 279.192 81.836 278.033C81.836 276.874 80.896 275.935 79.737 275.935ZM100.722 275.935C99.563 275.935 98.623 276.874 98.623 278.033C98.623 279.192 99.563 280.131 100.722 280.131C101.88 280.131 102.819 279.192 102.819 278.033C102.819 276.874 101.88 275.935 100.722 275.935ZM21.9268 252.853C21.5094 254.908 19.8912 256.527 17.8359 256.943V272.892C19.8913 273.308 21.5094 274.928 21.9268 276.983H32.6299C33.0472 274.928 34.6663 273.308 36.7217 272.892V256.943C34.6663 256.527 33.0472 254.908 32.6299 252.853H21.9268ZM42.9111 252.853C42.4939 254.908 40.8747 256.527 38.8193 256.943V272.892C40.8747 273.308 42.4938 274.928 42.9111 276.983H53.6133C54.0306 274.928 55.6497 273.308 57.7051 272.892V256.943C55.6497 256.527 54.0305 254.908 53.6133 252.853H42.9111ZM63.8945 252.853C63.4773 254.908 61.8588 256.527 59.8037 256.943V272.892C61.8589 273.308 63.4772 274.928 63.8945 276.983H74.598C75.015 274.928 76.633 273.308 78.688 272.892V256.943C76.633 256.527 75.015 254.908 74.598 252.853H63.8945ZM84.878 252.853C84.461 254.908 82.842 256.527 80.787 256.943V272.892C82.842 273.308 84.461 274.928 84.878 276.983H95.581C95.998 274.928 97.617 273.308 99.672 272.892V256.943C97.617 256.527 95.998 254.908 95.581 252.853H84.878ZM16.7871 249.705C15.6282 249.705 14.6885 250.645 14.6885 251.804C14.6887 252.962 15.6284 253.901 16.7871 253.901C17.9458 253.901 18.8845 252.962 18.8848 251.804C18.8848 250.645 17.9459 249.705 16.7871 249.705ZM37.7705 249.705C36.6116 249.705 35.6719 250.645 35.6719 251.804C35.6721 252.962 36.6118 253.901 37.7705 253.901C38.9293 253.901 39.8689 252.962 39.8691 251.804C39.8691 250.645 38.9294 249.705 37.7705 249.705ZM58.7539 249.705C57.5951 249.705 56.6553 250.645 56.6553 251.804C56.6555 252.962 57.5952 253.901 58.7539 253.901C59.9127 253.901 60.8523 252.962 60.8525 251.804C60.8525 250.645 59.9128 249.705 58.7539 249.705ZM79.737 249.705C78.579 249.705 77.64 250.645 77.64 251.804C77.64 252.962 78.579 253.901 79.737 253.901C80.896 253.901 81.836 252.962 81.836 251.804C81.836 250.645 80.896 249.705 79.737 249.705ZM100.722 249.705C99.563 249.705 98.623 250.645 98.623 251.804C98.623 252.962 99.563 253.901 100.722 253.901C101.88 253.901 102.819 252.962 102.819 251.804C102.819 250.645 101.88 249.705 100.722 249.705ZM21.9268 226.623C21.5094 228.678 19.8912 230.297 17.8359 230.714V246.662C19.8913 247.079 21.5094 248.699 21.9268 250.754H32.6299C33.0472 248.699 34.6663 247.079 36.7217 246.662V230.714C34.6664 230.297 33.0472 228.678 32.6299 226.623H21.9268ZM42.9111 226.623C42.4939 228.678 40.8747 230.297 38.8193 230.714V246.662C40.8747 247.079 42.4938 248.699 42.9111 250.754H53.6133C54.0306 248.699 55.6497 247.079 57.7051 246.662V230.714C55.6497 230.297 54.0305 228.678 53.6133 226.623H42.9111ZM63.8945 226.623C63.4773 228.678 61.8588 230.297 59.8037 230.714V246.662C61.8589 247.079 63.4772 248.699 63.8945 250.754H74.598C75.015 248.699 76.633 247.079 78.688 246.662V230.714C76.633 230.297 75.015 228.678 74.598 226.623H63.8945ZM84.878 226.623C84.461 228.678 82.842 230.297 80.787 230.714V246.662C82.842 247.079 84.461 248.699 84.878 250.754H95.581C95.998 248.699 97.617 247.079 99.672 246.662V230.714C97.617 230.297 95.998 228.678 95.581 226.623H84.878ZM16.7871 223.476C15.6282 223.476 14.6885 224.415 14.6885 225.574C14.6887 226.733 15.6284 227.672 16.7871 227.672C17.9457 227.672 18.8845 226.733 18.8848 225.574C18.8848 224.415 17.9459 223.476 16.7871 223.476ZM37.7705 223.476C36.6116 223.476 35.6719 224.415 35.6719 225.574C35.6721 226.733 36.6118 227.672 37.7705 227.672C38.9292 227.672 39.8689 226.733 39.8691 225.574C39.8691 224.415 38.9294 223.476 37.7705 223.476ZM58.7539 223.476C57.5951 223.476 56.6553 224.415 56.6553 225.574C56.6555 226.733 57.5953 227.672 58.7539 227.672C59.9126 227.672 60.8523 226.733 60.8525 225.574C60.8525 224.415 59.9128 223.476 58.7539 223.476ZM79.737 223.476C78.579 223.476 77.64 224.415 77.64 225.574C77.64 226.733 78.579 227.672 79.737 227.672C80.896 227.672 81.836 226.733 81.836 225.574C81.836 224.415 80.896 223.476 79.737 223.476ZM100.722 223.476C99.563 223.476 98.623 224.415 98.623 225.574C98.623 226.733 99.563 227.672 100.722 227.672C101.88 227.672 102.819 226.733 102.819 225.574C102.819 224.415 101.88 223.476 100.722 223.476ZM21.9268 200.394C21.5094 202.449 19.8912 204.068 17.8359 204.484V220.433C19.8913 220.849 21.5094 222.469 21.9268 224.524H32.6299C33.0472 222.469 34.6663 220.849 36.7217 220.433V204.484C34.6664 204.068 33.0472 202.449 32.6299 200.394H21.9268ZM42.9111 200.394C42.4939 202.449 40.8747 204.068 38.8193 204.484V220.433C40.8748 220.849 42.4938 222.469 42.9111 224.524H53.6133C54.0306 222.469 55.6497 220.849 57.7051 220.433V204.484C55.6497 204.068 54.0305 202.449 53.6133 200.394H42.9111ZM63.8945 200.394C63.4773 202.449 61.8588 204.068 59.8037 204.484V220.433C61.8589 220.849 63.4773 222.469 63.8945 224.524H74.598C75.015 222.469 76.633 220.849 78.688 220.433V204.484C76.633 204.068 75.015 202.449 74.598 200.394H63.8945ZM84.878 200.394C84.461 202.449 82.842 204.068 80.787 204.484V220.433C82.842 220.849 84.461 222.469 84.878 224.524H95.581C95.998 222.469 97.617 220.849 99.672 220.433V204.484C97.617 204.068 95.998 202.449 95.581 200.394H84.878ZM16.7871 197.246C15.6282 197.246 14.6885 198.186 14.6885 199.345C14.6887 200.503 15.6284 201.442 16.7871 201.442C17.9457 201.442 18.8845 200.503 18.8848 199.345C18.8848 198.186 17.9459 197.246 16.7871 197.246ZM37.7705 197.246C36.6116 197.246 35.6719 198.186 35.6719 199.345C35.6721 200.503 36.6118 201.442 37.7705 201.442C38.9292 201.442 39.8689 200.503 39.8691 199.345C39.8691 198.186 38.9294 197.246 37.7705 197.246ZM58.7539 197.246C57.5951 197.246 56.6553 198.186 56.6553 199.345C56.6555 200.503 57.5953 201.442 58.7539 201.442C59.9126 201.442 60.8523 200.503 60.8525 199.345C60.8525 198.186 59.9128 197.246 58.7539 197.246ZM79.737 197.246C78.579 197.246 77.64 198.186 77.64 199.345C77.64 200.503 78.579 201.442 79.737 201.442C80.896 201.442 81.836 200.503 81.836 199.345C81.836 198.186 80.896 197.246 79.737 197.246ZM100.722 197.246C99.563 197.246 98.623 198.186 98.623 199.345C98.623 200.503 99.563 201.442 100.722 201.442C101.88 201.442 102.819 200.503 102.819 199.345C102.819 198.186 101.88 197.246 100.722 197.246ZM21.9268 174.164C21.5094 176.219 19.8912 177.838 17.8359 178.255V194.203C19.8913 194.62 21.5094 196.24 21.9268 198.295H32.6299C33.0472 196.24 34.6663 194.62 36.7217 194.203V178.255C34.6664 177.838 33.0472 176.219 32.6299 174.164H21.9268ZM42.9111 174.164C42.4938 176.219 40.8747 177.838 38.8193 178.255V194.203C40.8748 194.62 42.4938 196.24 42.9111 198.295H53.6133C54.0306 196.24 55.6496 194.62 57.7051 194.203V178.255C55.6497 177.838 54.0306 176.219 53.6133 174.164H42.9111ZM63.8945 174.164C63.4773 176.219 61.8588 177.838 59.8037 178.255V194.203C61.8589 194.62 63.4773 196.24 63.8945 198.295H74.598C75.015 196.24 76.633 194.62 78.688 194.203V178.255C76.633 177.838 75.015 176.219 74.598 174.164H63.8945ZM84.878 174.164C84.461 176.219 82.842 177.838 80.787 178.255V194.203C82.842 194.62 84.461 196.24 84.878 198.295H95.581C95.998 196.24 97.617 194.62 99.672 194.203V178.255C97.617 177.838 95.998 176.219 95.581 174.164H84.878ZM16.7871 171.017C15.6282 171.017 14.6885 171.956 14.6885 173.115C14.6887 174.274 15.6284 175.213 16.7871 175.213C17.9457 175.213 18.8845 174.274 18.8848 173.115C18.8848 171.956 17.9459 171.017 16.7871 171.017ZM37.7705 171.017C36.6116 171.017 35.6719 171.956 35.6719 173.115C35.6721 174.274 36.6118 175.213 37.7705 175.213C38.9292 175.213 39.8689 174.274 39.8691 173.115C39.8691 171.956 38.9294 171.017 37.7705 171.017ZM58.7539 171.017C57.5951 171.017 56.6553 171.956 56.6553 173.115C56.6555 174.274 57.5953 175.213 58.7539 175.213C59.9126 175.213 60.8523 174.274 60.8525 173.115C60.8525 171.956 59.9128 171.017 58.7539 171.017ZM79.737 171.017C78.579 171.017 77.64 171.956 77.64 173.115C77.64 174.274 78.579 175.213 79.737 175.213C80.896 175.213 81.836 174.274 81.836 173.115C81.836 171.956 80.896 171.017 79.737 171.017ZM100.722 171.017C99.563 171.017 98.623 171.956 98.623 173.115C98.623 174.274 99.563 175.213 100.722 175.213C101.88 175.213 102.819 174.274 102.819 173.115C102.819 171.956 101.88 171.017 100.722 171.017ZM21.9268 147.935C21.5094 149.99 19.8912 151.609 17.8359 152.025V167.974C19.8913 168.39 21.5094 170.01 21.9268 172.065H32.6299C33.0472 170.01 34.6663 168.39 36.7217 167.974V152.025C34.6664 151.609 33.0472 149.99 32.6299 147.935H21.9268ZM42.9111 147.935C42.4938 149.99 40.8747 151.609 38.8193 152.025V167.974C40.8748 168.39 42.4939 170.01 42.9111 172.065H53.6133C54.0306 170.01 55.6496 168.39 57.7051 167.974V152.025C55.6498 151.609 54.0306 149.99 53.6133 147.935H42.9111ZM63.8945 147.935C63.4773 149.99 61.8588 151.609 59.8037 152.025V167.974C61.8589 168.39 63.4773 170.01 63.8945 172.065H74.598C75.015 170.01 76.633 168.39 78.688 167.974V152.025C76.633 151.609 75.015 149.99 74.598 147.935H63.8945ZM84.878 147.935C84.461 149.99 82.842 151.609 80.787 152.025V167.974C82.842 168.39 84.461 170.01 84.878 172.065H95.581C95.998 170.01 97.617 168.39 99.672 167.974V152.025C97.617 151.609 95.998 149.99 95.581 147.935H84.878ZM16.7871 144.787C15.6284 144.787 14.6887 145.726 14.6885 146.885C14.6885 148.044 15.6282 148.983 16.7871 148.983C17.9459 148.983 18.8848 148.044 18.8848 146.885C18.8845 145.726 17.9457 144.787 16.7871 144.787ZM37.7705 144.787C36.6118 144.787 35.6721 145.726 35.6719 146.885C35.6719 148.044 36.6116 148.983 37.7705 148.983C38.9294 148.983 39.8691 148.044 39.8691 146.885C39.8689 145.726 38.9292 144.787 37.7705 144.787ZM58.7539 144.787C57.5953 144.787 56.6555 145.726 56.6553 146.885C56.6553 148.044 57.5951 148.983 58.7539 148.983C59.9128 148.983 60.8525 148.044 60.8525 146.885C60.8523 145.726 59.9126 144.787 58.7539 144.787ZM79.737 144.787C78.579 144.787 77.64 145.726 77.64 146.885C77.64 148.044 78.579 148.983 79.737 148.983C80.896 148.983 81.836 148.044 81.836 146.885C81.836 145.726 80.896 144.787 79.737 144.787ZM100.722 144.787C99.563 144.787 98.623 145.726 98.623 146.885C98.623 148.044 99.563 148.983 100.722 148.983C101.88 148.983 102.819 148.044 102.819 146.885C102.819 145.726 101.88 144.787 100.722 144.787ZM21.9268 121.705C21.5094 123.76 19.8912 125.379 17.8359 125.796V141.744C19.8913 142.161 21.5094 143.781 21.9268 145.836H32.6299C33.0472 143.781 34.6663 142.161 36.7217 141.744V125.796C34.6664 125.379 33.0472 123.76 32.6299 121.705H21.9268ZM42.9111 121.705C42.4938 123.76 40.8746 125.379 38.8193 125.796V141.744C40.8748 142.161 42.4939 143.781 42.9111 145.836H53.6133C54.0305 143.781 55.6496 142.161 57.7051 141.744V125.796C55.6498 125.379 54.0306 123.76 53.6133 121.705H42.9111ZM63.8945 121.705C63.4773 123.76 61.8588 125.379 59.8037 125.796V141.744C61.8589 142.161 63.4773 143.781 63.8945 145.836H74.598C75.015 143.781 76.633 142.161 78.688 141.744V125.796C76.633 125.379 75.015 123.76 74.598 121.705H63.8945ZM84.878 121.705C84.461 123.76 82.842 125.379 80.787 125.796V141.744C82.842 142.161 84.461 143.781 84.878 145.836H95.581C95.998 143.781 97.617 142.161 99.672 141.744V125.796C97.617 125.379 95.998 123.76 95.581 121.705H84.878ZM16.7871 118.558C15.6284 118.558 14.6887 119.497 14.6885 120.655C14.6885 121.814 15.6282 122.754 16.7871 122.754C17.9459 122.754 18.8848 121.814 18.8848 120.655C18.8845 119.497 17.9457 118.558 16.7871 118.558ZM37.7705 118.558C36.6118 118.558 35.6721 119.497 35.6719 120.655C35.6719 121.814 36.6116 122.754 37.7705 122.754C38.9294 122.754 39.8691 121.814 39.8691 120.655C39.8689 119.497 38.9292 118.558 37.7705 118.558ZM58.7539 118.558C57.5953 118.558 56.6555 119.497 56.6553 120.655C56.6553 121.814 57.5951 122.754 58.7539 122.754C59.9128 122.754 60.8525 121.814 60.8525 120.655C60.8523 119.497 59.9126 118.558 58.7539 118.558ZM79.737 118.558C78.579 118.558 77.64 119.497 77.64 120.655C77.64 121.814 78.579 122.754 79.737 122.754C80.896 122.754 81.836 121.814 81.836 120.655C81.836 119.497 80.896 118.558 79.737 118.558ZM100.722 118.558C99.563 118.558 98.623 119.497 98.623 120.655C98.623 121.814 99.563 122.754 100.722 122.754C101.88 122.754 102.819 121.814 102.819 120.655C102.819 119.497 101.88 118.558 100.722 118.558ZM21.9268 95.476C21.5094 97.531 19.8912 99.149 17.8359 99.566V115.515C19.8913 115.931 21.5094 117.551 21.9268 119.606H32.6299C33.0472 117.551 34.6662 115.931 36.7217 115.515V99.566C34.6664 99.149 33.0472 97.531 32.6299 95.476H21.9268ZM42.9111 95.476C42.4938 97.531 40.8746 99.149 38.8193 99.566V115.515C40.8748 115.931 42.4939 117.551 42.9111 119.606H53.6133C54.0305 117.551 55.6496 115.931 57.7051 115.515V99.566C55.6498 99.149 54.0306 97.531 53.6133 95.476H42.9111ZM63.8945 95.476C63.4773 97.531 61.8588 99.149 59.8037 99.566V115.515C61.8589 115.931 63.4773 117.551 63.8945 119.606H74.598C75.015 117.551 76.633 115.931 78.688 115.515V99.566C76.633 99.149 75.015 97.531 74.598 95.476H63.8945ZM84.878 95.476C84.461 97.531 82.842 99.149 80.787 99.566V115.515C82.842 115.931 84.461 117.551 84.878 119.606H95.581C95.998 117.551 97.617 115.931 99.672 115.515V99.566C97.617 99.149 95.998 97.531 95.581 95.476H84.878ZM16.7871 92.328C15.6284 92.328 14.6887 93.267 14.6885 94.426C14.6885 95.585 15.6282 96.524 16.7871 96.524C17.9459 96.524 18.8848 95.585 18.8848 94.426C18.8845 93.267 17.9458 92.328 16.7871 92.328ZM37.7705 92.328C36.6118 92.328 35.6721 93.267 35.6719 94.426C35.6719 95.585 36.6116 96.524 37.7705 96.524C38.9294 96.524 39.8691 95.585 39.8691 94.426C39.8689 93.267 38.9292 92.328 37.7705 92.328ZM58.7539 92.328C57.5953 92.328 56.6555 93.267 56.6553 94.426C56.6553 95.585 57.5951 96.524 58.7539 96.524C59.9128 96.524 60.8525 95.585 60.8525 94.426C60.8523 93.267 59.9127 92.328 58.7539 92.328ZM79.737 92.328C78.579 92.328 77.64 93.267 77.64 94.426C77.64 95.585 78.579 96.524 79.737 96.524C80.896 96.524 81.836 95.585 81.836 94.426C81.836 93.267 80.896 92.328 79.737 92.328ZM100.722 92.328C99.563 92.328 98.623 93.267 98.623 94.426C98.623 95.585 99.563 96.524 100.722 96.524C101.88 96.524 102.819 95.585 102.819 94.426C102.819 93.267 101.88 92.328 100.722 92.328ZM21.9268 69.246C21.5094 71.301 19.8912 72.92 17.8359 73.337V89.285C19.8913 89.702 21.5094 91.322 21.9268 93.377H32.6299C33.0472 91.322 34.6662 89.702 36.7217 89.285V73.337C34.6664 72.92 33.0472 71.301 32.6299 69.246H21.9268ZM42.9111 69.246C42.4938 71.301 40.8746 72.92 38.8193 73.337V89.285C40.8748 89.702 42.4939 91.322 42.9111 93.377H53.6133C54.0305 91.322 55.6496 89.702 57.7051 89.285V73.337C55.6498 72.92 54.0306 71.301 53.6133 69.246H42.9111ZM63.8945 69.246C63.4772 71.301 61.8588 72.92 59.8037 73.337V89.285C61.8589 89.703 63.4773 91.322 63.8945 93.377H74.598C75.015 91.322 76.633 89.702 78.688 89.285V73.337C76.633 72.92 75.015 71.301 74.598 69.246H63.8945ZM84.878 69.246C84.461 71.301 82.842 72.92 80.787 73.337V89.285C82.842 89.702 84.461 91.322 84.878 93.377H95.581C95.998 91.322 97.617 89.703 99.672 89.285V73.337C97.617 72.92 95.998 71.301 95.581 69.246H84.878ZM16.7871 66.0986C15.6284 66.0986 14.6887 67.0376 14.6885 68.196C14.6885 69.355 15.6282 70.295 16.7871 70.295C17.9459 70.295 18.8848 69.355 18.8848 68.196C18.8845 67.0377 17.9458 66.0988 16.7871 66.0986ZM37.7705 66.0986C36.6118 66.0986 35.6721 67.0376 35.6719 68.196C35.6719 69.355 36.6116 70.295 37.7705 70.295C38.9294 70.295 39.8691 69.355 39.8691 68.196C39.8689 67.0376 38.9292 66.0986 37.7705 66.0986ZM58.7539 66.0986C57.5952 66.0987 56.6555 67.0377 56.6553 68.196C56.6553 69.355 57.5951 70.295 58.7539 70.295C59.9128 70.295 60.8525 69.355 60.8525 68.196C60.8523 67.0376 59.9127 66.0986 58.7539 66.0986ZM79.737 66.0986C78.579 66.0988 77.64 67.0377 77.64 68.196C77.64 69.355 78.579 70.295 79.737 70.295C80.896 70.295 81.836 69.355 81.836 68.196C81.836 67.0376 80.896 66.0986 79.737 66.0986ZM100.722 66.0986C99.563 66.0986 98.623 67.0376 98.623 68.196C98.623 69.355 99.563 70.295 100.722 70.295C101.88 70.295 102.819 69.355 102.819 68.196C102.819 67.0377 101.88 66.0988 100.722 66.0986ZM21.9268 43.0166C21.5094 45.0718 19.8912 46.6902 17.8359 47.1074V63.0557C19.8913 63.4729 21.5094 65.0921 21.9268 67.1475H32.6299C33.0471 65.092 34.6662 63.4729 36.7217 63.0557V47.1074C34.6664 46.6902 33.0472 45.0719 32.6299 43.0166H21.9268ZM42.9111 43.0166C42.4938 45.0719 40.8746 46.6902 38.8193 47.1074V63.0557C40.8748 63.4729 42.4939 65.092 42.9111 67.1475H53.6133C54.0305 65.092 55.6496 63.4729 57.7051 63.0557V47.1074C55.6498 46.6902 54.0306 45.0719 53.6133 43.0166H42.9111ZM63.8945 43.0166C63.4772 45.0717 61.8588 46.69 59.8037 47.1074V63.0557C61.8589 63.4731 63.4773 65.0922 63.8945 67.1475H74.598C75.015 65.0921 76.633 63.4729 78.688 63.0557V47.1074C76.633 46.6902 75.015 45.0718 74.598 43.0166H63.8945ZM84.878 43.0166C84.461 45.0718 82.842 46.6901 80.787 47.1074V63.0557C82.842 63.473 84.461 65.0922 84.878 67.1475H95.581C95.998 65.0922 97.617 63.473 99.672 63.0557V47.1074C97.617 46.6901 95.998 45.0718 95.581 43.0166H84.878ZM16.7871 39.8691C15.6284 39.8691 14.6887 40.8081 14.6885 41.9668C14.6885 43.1257 15.6282 44.0654 16.7871 44.0654C17.9459 44.0653 18.8848 43.1256 18.8848 41.9668C18.8845 40.8082 17.9458 39.8693 16.7871 39.8691ZM37.7705 39.8691C36.6118 39.8691 35.6721 40.8081 35.6719 41.9668C35.6719 43.1257 36.6116 44.0654 37.7705 44.0654C38.9294 44.0654 39.8691 43.1257 39.8691 41.9668C39.8689 40.8081 38.9293 39.8691 37.7705 39.8691ZM58.7539 39.8691C57.5952 39.8692 56.6555 40.8082 56.6553 41.9668C56.6553 43.1256 57.5951 44.0653 58.7539 44.0654C59.9128 44.0654 60.8525 43.1257 60.8525 41.9668C60.8523 40.8081 59.9127 39.8691 58.7539 39.8691ZM79.737 39.8691C78.579 39.8694 77.64 40.8082 77.64 41.9668C77.64 43.1256 78.579 44.0652 79.737 44.0654C80.896 44.0654 81.836 43.1257 81.836 41.9668C81.836 40.8081 80.896 39.8691 79.737 39.8691ZM100.722 39.8691C99.563 39.8691 98.623 40.8081 98.623 41.9668C98.623 43.1257 99.563 44.0654 100.722 44.0654C101.88 44.0652 102.819 43.1256 102.819 41.9668C102.819 40.8082 101.88 39.8693 100.722 39.8691ZM21.9268 16.7871C21.5094 18.8423 19.8912 20.4607 17.8359 20.8779V36.8262C19.8913 37.2434 21.5094 38.8626 21.9268 40.918H32.6299C33.0471 38.8625 34.6662 37.2434 36.7217 36.8262V20.8779C34.6664 20.4607 33.0472 18.8424 32.6299 16.7871H21.9268ZM42.9111 16.7871C42.4938 18.8424 40.8746 20.4607 38.8193 20.8779V36.8262C40.8748 37.2434 42.4939 38.8625 42.9111 40.918H53.6133C54.0305 38.8625 55.6496 37.2434 57.7051 36.8262V20.8779C55.6498 20.4607 54.0306 18.8424 53.6133 16.7871H42.9111ZM63.8945 16.7871C63.4772 18.8422 61.8588 20.4605 59.8037 20.8779V36.8262C61.8589 37.2436 63.4773 38.8627 63.8945 40.918H74.598C75.015 38.8626 76.633 37.2435 78.688 36.8262V20.8779C76.633 20.4607 75.015 18.8423 74.598 16.7871H63.8945ZM84.878 16.7871C84.461 18.8423 82.842 20.4606 80.787 20.8779V36.8262C82.842 37.2435 84.461 38.8627 84.878 40.918H95.581C95.998 38.8627 97.617 37.2435 99.672 36.8262V20.8779C97.617 20.4606 95.998 18.8423 95.581 16.7871H84.878ZM16.7871 13.6396C15.6284 13.6396 14.6887 14.5786 14.6885 15.7373C14.6885 16.8962 15.6282 17.8359 16.7871 17.8359C17.9459 17.8358 18.8848 16.8961 18.8848 15.7373C18.8845 14.5787 17.9458 13.6398 16.7871 13.6396ZM37.7705 13.6396C36.6117 13.6396 35.6721 14.5786 35.6719 15.7373C35.6719 16.8962 36.6116 17.8359 37.7705 17.8359C38.9294 17.8359 39.8691 16.8962 39.8691 15.7373C39.8689 14.5786 38.9293 13.6397 37.7705 13.6396ZM58.7539 13.6396C57.5952 13.6398 56.6555 14.5787 56.6553 15.7373C56.6553 16.8961 57.5951 17.8358 58.7539 17.8359C59.9128 17.8359 60.8525 16.8962 60.8525 15.7373C60.8523 14.5786 59.9127 13.6396 58.7539 13.6396ZM79.737 13.6396C78.579 13.6399 77.64 14.5787 77.64 15.7373C77.64 16.8961 78.579 17.8357 79.737 17.8359C80.896 17.8359 81.836 16.8962 81.836 15.7373C81.836 14.5786 80.896 13.6396 79.737 13.6396ZM100.722 13.6396C99.563 13.6396 98.623 14.5786 98.623 15.7373C98.623 16.8962 99.563 17.8359 100.722 17.8359C101.88 17.8357 102.819 16.8961 102.819 15.7373C102.819 14.5787 101.88 13.6398 100.722 13.6396Z" fill="#D3E9F8"/>
</g>
</g>
<path d="M536.175 237.75H481.725L430.575 115.65H429.475C429.842 121.15 430.117 126.283 430.3 131.05C430.667 135.817 430.942 140.308 431.125 144.525C431.308 148.558 431.4 152.408 431.4 156.075C431.583 159.558 431.675 162.675 431.675 165.425V237.75H388.225V41.4H442.4L493.275 160.2H494.375C494.192 155.25 493.917 150.575 493.55 146.175C493.367 141.592 493.183 137.375 493 133.525C492.817 129.492 492.633 125.733 492.45 122.25C492.45 118.767 492.45 115.558 492.45 112.625V41.4H536.175V237.75ZM670.444 85.675V237.75H635.794L630.569 219.05H628.369C625.985 223.817 623.144 227.85 619.844 231.15C616.727 234.267 613.06 236.558 608.844 238.025C604.627 239.675 599.769 240.5 594.269 240.5C585.469 240.5 577.86 238.3 571.444 233.9C565.21 229.5 560.444 223.175 557.144 214.925C553.844 206.492 552.194 196.408 552.194 184.675V85.675H596.744V170.1C596.744 180.183 597.569 187.883 599.219 193.2C601.052 198.333 604.169 200.9 608.569 200.9C613.885 200.9 617.735 199.25 620.119 195.95C622.685 192.65 624.244 187.975 624.794 181.925C625.527 175.875 625.894 168.817 625.894 160.75V85.675H670.444ZM743.675 41.4C758.525 41.4 770.717 43.1417 780.25 46.625C789.967 50.1083 797.209 55.5167 801.975 62.85C806.742 70 809.125 79.1667 809.125 90.35C809.125 97.5 808.025 104.1 805.825 110.15C803.809 116.017 800.875 120.967 797.025 125C793.175 129.033 788.684 131.875 783.55 133.525V134.9C790.334 136.917 795.834 140.033 800.05 144.25C804.267 148.283 807.384 153.325 809.4 159.375C811.417 165.242 812.425 172.208 812.425 180.275C812.425 192.008 809.859 202.183 804.725 210.8C799.592 219.417 792.259 226.108 782.725 230.875C773.375 235.458 762.192 237.75 749.175 237.75H686.75V41.4H743.675ZM743.675 117.85C749.542 117.85 754.034 116.2 757.15 112.9C760.267 109.417 761.825 104.283 761.825 97.5C761.825 91.45 760.267 86.9583 757.15 84.025C754.034 80.9083 749.267 79.35 742.85 79.35H733.5V117.85H743.675ZM733.5 154.425V198.975H745.6C752.017 198.975 756.784 197.142 759.9 193.475C763.017 189.625 764.575 183.942 764.575 176.425C764.575 171.658 763.842 167.717 762.375 164.6C760.909 161.3 758.709 158.825 755.775 157.175C752.842 155.342 749.267 154.425 745.05 154.425H733.5ZM868.42 237.75H823.87V28.75H868.42V237.75ZM1001.44 161.3C1001.44 171.017 1000.34 180.642 998.136 190.175C996.12 199.525 992.728 208.05 987.961 215.75C983.195 223.267 976.778 229.317 968.711 233.9C960.828 238.3 951.02 240.5 939.286 240.5C928.47 240.5 919.12 238.3 911.236 233.9C903.536 229.5 897.12 223.542 891.986 216.025C887.036 208.508 883.37 200.075 880.986 190.725C878.603 181.192 877.411 171.383 877.411 161.3C877.411 146.633 879.52 133.433 883.736 121.7C887.953 109.783 894.645 100.342 903.811 93.375C912.978 86.4083 924.986 82.925 939.836 82.925C952.12 82.925 962.845 86.0417 972.011 92.275C981.361 98.325 988.603 107.217 993.736 118.95C998.87 130.5 1001.44 144.617 1001.44 161.3ZM922.511 161.85C922.511 170.833 923.061 178.442 924.161 184.675C925.445 190.908 927.37 195.583 929.936 198.7C932.503 201.817 935.711 203.375 939.561 203.375C943.778 203.375 947.078 201.817 949.461 198.7C951.845 195.583 953.586 190.908 954.686 184.675C955.786 178.442 956.336 170.65 956.336 161.3C956.336 151.95 955.786 144.25 954.686 138.2C953.586 132.15 951.845 127.658 949.461 124.725C947.078 121.608 943.778 120.05 939.561 120.05C933.695 120.05 929.386 123.442 926.636 130.225C923.886 137.008 922.511 147.55 922.511 161.85ZM1030.01 160.2L995.636 85.675H1044.04L1058.89 125.55L1072.91 85.675H1121.31L1087.49 160.2L1122.69 237.75H1074.29L1057.79 194.85L1042.11 237.75H994.811L1030.01 160.2Z" fill="#E9F4FC"/>
<path d="M393.312 271.884C391.32 271.884 389.534 272.26 387.956 273.012C386.377 273.726 385.024 274.797 383.896 276.226C382.806 277.616 381.961 279.327 381.359 281.356C380.795 283.348 380.514 285.604 380.514 288.122C380.514 291.43 380.983 294.305 381.923 296.748C382.863 299.191 384.272 301.071 386.152 302.386C388.069 303.702 390.437 304.36 393.256 304.36C394.909 304.36 396.469 304.209 397.935 303.909C399.439 303.608 400.923 303.232 402.389 302.781V307.179C400.961 307.743 399.495 308.156 397.992 308.419C396.488 308.682 394.684 308.814 392.579 308.814C388.708 308.814 385.475 307.968 382.882 306.277C380.326 304.585 378.409 302.18 377.131 299.06C375.853 295.94 375.214 292.275 375.214 288.066C375.214 285.021 375.608 282.24 376.398 279.721C377.187 277.203 378.352 275.023 379.893 273.181C381.434 271.339 383.333 269.93 385.588 268.952C387.843 267.938 390.437 267.43 393.368 267.43C395.285 267.43 397.146 267.637 398.95 268.05C400.754 268.464 402.389 269.046 403.855 269.798L401.882 274.083C400.717 273.519 399.401 273.012 397.935 272.561C396.507 272.11 394.966 271.884 393.312 271.884ZM431.975 293.084C431.975 295.602 431.656 297.838 431.017 299.793C430.415 301.71 429.532 303.345 428.367 304.698C427.202 306.051 425.792 307.085 424.138 307.799C422.484 308.476 420.643 308.814 418.613 308.814C416.734 308.814 414.986 308.476 413.37 307.799C411.791 307.085 410.4 306.051 409.197 304.698C408.032 303.345 407.13 301.71 406.491 299.793C405.852 297.838 405.533 295.602 405.533 293.084C405.533 289.738 406.059 286.919 407.111 284.626C408.201 282.296 409.742 280.529 411.734 279.327C413.727 278.086 416.076 277.466 418.782 277.466C421.376 277.466 423.65 278.086 425.604 279.327C427.596 280.529 429.156 282.296 430.284 284.626C431.411 286.919 431.975 289.738 431.975 293.084ZM410.607 293.084C410.607 295.452 410.889 297.519 411.453 299.285C412.016 301.014 412.9 302.349 414.102 303.288C415.305 304.228 416.846 304.698 418.726 304.698C420.605 304.698 422.146 304.228 423.349 303.288C424.552 302.349 425.435 301.014 425.999 299.285C426.6 297.519 426.901 295.452 426.901 293.084C426.901 290.678 426.6 288.629 425.999 286.938C425.435 285.247 424.552 283.95 423.349 283.048C422.146 282.108 420.586 281.638 418.669 281.638C415.85 281.638 413.802 282.653 412.524 284.683C411.246 286.712 410.607 289.513 410.607 293.084ZM450.317 277.466C453.7 277.466 456.255 278.349 457.984 280.116C459.751 281.845 460.634 284.664 460.634 288.573V308.25H455.729V288.911C455.729 286.468 455.222 284.645 454.207 283.442C453.192 282.24 451.632 281.638 449.527 281.638C446.445 281.638 444.303 282.578 443.1 284.457C441.935 286.337 441.352 289.043 441.352 292.576V308.25H436.447V278.03H440.394L441.127 282.146H441.408C442.01 281.093 442.78 280.229 443.72 279.552C444.66 278.838 445.693 278.312 446.821 277.973C447.949 277.635 449.114 277.466 450.317 277.466ZM485.216 299.906C485.216 301.86 484.746 303.495 483.806 304.811C482.904 306.126 481.607 307.122 479.916 307.799C478.224 308.476 476.195 308.814 473.827 308.814C471.835 308.814 470.106 308.645 468.64 308.306C467.211 307.968 465.952 307.498 464.862 306.897V302.386C466.027 302.988 467.418 303.552 469.034 304.078C470.651 304.566 472.286 304.811 473.939 304.811C476.232 304.811 477.886 304.416 478.901 303.627C479.953 302.8 480.48 301.71 480.48 300.357C480.48 299.605 480.273 298.928 479.859 298.327C479.484 297.726 478.788 297.124 477.773 296.523C476.796 295.921 475.368 295.245 473.488 294.493C471.684 293.741 470.124 292.99 468.809 292.238C467.531 291.486 466.535 290.584 465.821 289.532C465.144 288.479 464.806 287.126 464.806 285.472C464.806 282.916 465.783 280.943 467.738 279.552C469.73 278.161 472.323 277.466 475.518 277.466C477.247 277.466 478.863 277.654 480.367 278.03C481.87 278.368 483.299 278.857 484.652 279.496L483.017 283.442C482.227 283.067 481.4 282.747 480.536 282.484C479.671 282.183 478.788 281.958 477.886 281.807C477.022 281.619 476.138 281.525 475.236 281.525C473.394 281.525 471.985 281.864 471.008 282.54C470.03 283.179 469.542 284.063 469.542 285.19C469.542 286.017 469.767 286.731 470.218 287.333C470.669 287.934 471.402 288.517 472.417 289.08C473.47 289.607 474.898 290.227 476.702 290.941C478.506 291.655 480.047 292.388 481.325 293.14C482.603 293.892 483.562 294.813 484.201 295.903C484.877 296.955 485.216 298.289 485.216 299.906ZM498.981 304.754C499.695 304.754 500.428 304.698 501.18 304.585C501.932 304.435 502.552 304.285 503.04 304.134V307.912C502.514 308.175 501.762 308.382 500.785 308.532C499.845 308.72 498.943 308.814 498.079 308.814C496.575 308.814 495.185 308.551 493.907 308.024C492.629 307.461 491.595 306.502 490.806 305.149C490.054 303.796 489.678 301.898 489.678 299.455V281.864H485.675V279.496L489.791 277.522L491.651 271.095H494.583V278.03H502.815V281.864H494.583V299.342C494.583 301.184 494.997 302.556 495.824 303.458C496.651 304.322 497.703 304.754 498.981 304.754ZM519.319 277.466C519.845 277.466 520.409 277.504 521.01 277.579C521.612 277.616 522.138 277.692 522.589 277.804L522.025 282.371C521.574 282.258 521.067 282.164 520.503 282.089C519.977 282.014 519.469 281.976 518.981 281.976C517.891 281.976 516.857 282.221 515.88 282.709C514.903 283.198 514.019 283.893 513.23 284.796C512.478 285.66 511.877 286.712 511.426 287.953C510.975 289.193 510.749 290.584 510.749 292.125V308.25H505.844V278.03H509.847L510.411 283.555H510.636C511.238 282.428 511.952 281.413 512.779 280.511C513.643 279.571 514.621 278.838 515.711 278.312C516.801 277.748 518.003 277.466 519.319 277.466ZM549.011 278.03V308.25H545.064L544.331 304.247H544.106C543.504 305.299 542.715 306.164 541.738 306.84C540.798 307.517 539.764 308.006 538.637 308.306C537.509 308.645 536.325 308.814 535.085 308.814C532.829 308.814 530.931 308.438 529.39 307.686C527.849 306.897 526.684 305.694 525.894 304.078C525.143 302.462 524.767 300.375 524.767 297.82V278.03H529.728V297.481C529.728 299.887 530.236 301.691 531.251 302.894C532.266 304.097 533.825 304.698 535.93 304.698C537.998 304.698 539.614 304.285 540.779 303.458C541.982 302.593 542.828 301.353 543.316 299.736C543.842 298.083 544.106 296.091 544.106 293.76V278.03H549.011ZM566.546 308.814C563.99 308.814 561.734 308.269 559.78 307.179C557.825 306.089 556.284 304.397 555.157 302.104C554.067 299.812 553.522 296.88 553.522 293.309C553.522 289.588 554.104 286.562 555.269 284.232C556.435 281.901 558.013 280.191 560.005 279.101C562.035 278.011 564.328 277.466 566.884 277.466C568.35 277.466 569.759 277.635 571.112 277.973C572.503 278.274 573.631 278.65 574.495 279.101L572.973 283.217C572.108 282.879 571.094 282.559 569.928 282.258C568.801 281.958 567.748 281.807 566.771 281.807C564.929 281.807 563.407 282.24 562.204 283.104C561.001 283.969 560.099 285.247 559.498 286.938C558.897 288.629 558.596 290.734 558.596 293.253C558.596 295.658 558.897 297.707 559.498 299.398C560.099 301.09 560.983 302.368 562.148 303.232C563.351 304.097 564.817 304.529 566.546 304.529C568.087 304.529 569.459 304.36 570.661 304.021C571.864 303.683 572.973 303.27 573.988 302.781V307.179C573.011 307.705 571.939 308.1 570.774 308.363C569.609 308.663 568.199 308.814 566.546 308.814ZM587.638 304.754C588.352 304.754 589.085 304.698 589.837 304.585C590.588 304.435 591.209 304.285 591.697 304.134V307.912C591.171 308.175 590.419 308.382 589.442 308.532C588.502 308.72 587.6 308.814 586.736 308.814C585.232 308.814 583.841 308.551 582.563 308.024C581.286 307.461 580.252 306.502 579.463 305.149C578.711 303.796 578.335 301.898 578.335 299.455V281.864H574.332V279.496L578.448 277.522L580.308 271.095H583.24V278.03H591.472V281.864H583.24V299.342C583.24 301.184 583.654 302.556 584.48 303.458C585.307 304.322 586.36 304.754 587.638 304.754ZM599.462 278.03V308.25H594.557V278.03H599.462ZM597.038 266.697C597.79 266.697 598.448 266.96 599.011 267.487C599.575 267.975 599.857 268.765 599.857 269.855C599.857 270.907 599.575 271.696 599.011 272.223C598.448 272.749 597.79 273.012 597.038 273.012C596.249 273.012 595.572 272.749 595.008 272.223C594.444 271.696 594.163 270.907 594.163 269.855C594.163 268.765 594.444 267.975 595.008 267.487C595.572 266.96 596.249 266.697 597.038 266.697ZM630.421 293.084C630.421 295.602 630.101 297.838 629.462 299.793C628.861 301.71 627.978 303.345 626.812 304.698C625.647 306.051 624.238 307.085 622.584 307.799C620.93 308.476 619.088 308.814 617.059 308.814C615.179 308.814 613.431 308.476 611.815 307.799C610.236 307.085 608.846 306.051 607.643 304.698C606.478 303.345 605.576 301.71 604.937 299.793C604.298 297.838 603.978 295.602 603.978 293.084C603.978 289.738 604.504 286.919 605.557 284.626C606.647 282.296 608.188 280.529 610.18 279.327C612.172 278.086 614.521 277.466 617.228 277.466C619.821 277.466 622.095 278.086 624.05 279.327C626.042 280.529 627.602 282.296 628.729 284.626C629.857 286.919 630.421 289.738 630.421 293.084ZM609.052 293.084C609.052 295.452 609.334 297.519 609.898 299.285C610.462 301.014 611.345 302.349 612.548 303.288C613.751 304.228 615.292 304.698 617.171 304.698C619.051 304.698 620.592 304.228 621.795 303.288C622.997 302.349 623.881 301.014 624.444 299.285C625.046 297.519 625.347 295.452 625.347 293.084C625.347 290.678 625.046 288.629 624.444 286.938C623.881 285.247 622.997 283.95 621.795 283.048C620.592 282.108 619.032 281.638 617.115 281.638C614.296 281.638 612.247 282.653 610.969 284.683C609.691 286.712 609.052 289.513 609.052 293.084ZM648.762 277.466C652.145 277.466 654.701 278.349 656.43 280.116C658.197 281.845 659.08 284.664 659.08 288.573V308.25H654.175V288.911C654.175 286.468 653.667 284.645 652.653 283.442C651.638 282.24 650.078 281.638 647.973 281.638C644.891 281.638 642.748 282.578 641.545 284.457C640.38 286.337 639.798 289.043 639.798 292.576V308.25H634.893V278.03H638.839L639.572 282.146H639.854C640.455 281.093 641.226 280.229 642.166 279.552C643.105 278.838 644.139 278.312 645.267 277.973C646.394 277.635 647.559 277.466 648.762 277.466ZM687.616 267.374C689.533 267.374 691.187 267.731 692.577 268.445C693.968 269.122 695.039 270.099 695.791 271.377C696.543 272.655 696.919 274.215 696.919 276.056C696.919 278.424 696.186 280.435 694.72 282.089C693.291 283.743 691.487 285.247 689.307 286.6L699.343 297.087C700.245 295.921 700.978 294.587 701.542 293.084C702.143 291.542 702.632 289.889 703.008 288.122H707.969C707.443 290.528 706.729 292.764 705.827 294.831C704.962 296.899 703.853 298.703 702.5 300.244L710.281 308.25H703.684L699.23 303.514C698.403 304.303 697.52 305.036 696.58 305.713C695.678 306.352 694.701 306.897 693.648 307.348C692.634 307.799 691.506 308.156 690.266 308.419C689.063 308.682 687.747 308.814 686.319 308.814C683.838 308.814 681.696 308.4 679.892 307.573C678.087 306.709 676.697 305.45 675.719 303.796C674.742 302.142 674.253 300.131 674.253 297.763C674.253 295.846 674.573 294.192 675.212 292.802C675.888 291.411 676.828 290.171 678.031 289.08C679.234 287.99 680.662 286.938 682.316 285.923C681.564 285.021 680.831 284.081 680.117 283.104C679.44 282.127 678.877 281.074 678.426 279.947C678.012 278.782 677.805 277.522 677.805 276.169C677.805 274.327 678.2 272.749 678.989 271.433C679.779 270.118 680.906 269.122 682.372 268.445C683.876 267.731 685.624 267.374 687.616 267.374ZM685.248 289.024C684.045 289.813 682.992 290.622 682.09 291.448C681.226 292.238 680.549 293.121 680.061 294.098C679.61 295.076 679.384 296.241 679.384 297.594C679.384 299.661 680.023 301.315 681.301 302.556C682.617 303.796 684.346 304.416 686.488 304.416C688.668 304.416 690.548 304.021 692.126 303.232C693.705 302.443 695.039 301.503 696.129 300.413L685.248 289.024ZM687.503 271.433C686.075 271.433 684.891 271.847 683.951 272.674C683.011 273.501 682.541 274.647 682.541 276.113C682.541 277.466 682.861 278.725 683.5 279.89C684.176 281.018 685.135 282.277 686.375 283.668C688.405 282.39 689.852 281.187 690.717 280.06C691.619 278.894 692.07 277.56 692.07 276.056C692.07 274.703 691.656 273.595 690.829 272.73C690.003 271.865 688.894 271.433 687.503 271.433ZM734.557 267.994C737.714 267.994 740.364 268.313 742.507 268.952C744.649 269.591 746.265 270.644 747.355 272.11C748.445 273.576 748.99 275.53 748.99 277.973C748.99 279.552 748.708 280.962 748.145 282.202C747.618 283.405 746.829 284.42 745.777 285.247C744.724 286.036 743.427 286.581 741.886 286.882V287.164C743.465 287.427 744.875 287.915 746.115 288.629C747.393 289.344 748.389 290.358 749.103 291.674C749.855 292.99 750.231 294.7 750.231 296.805C750.231 299.248 749.686 301.334 748.596 303.063C747.543 304.754 746.04 306.051 744.085 306.953C742.131 307.818 739.781 308.25 737.038 308.25H723.675V267.994H734.557ZM735.515 285.134C738.673 285.134 740.834 284.589 741.999 283.499C743.202 282.371 743.803 280.717 743.803 278.537C743.803 276.32 743.07 274.741 741.604 273.801C740.176 272.824 737.902 272.335 734.782 272.335H728.693V285.134H735.515ZM728.693 289.362V303.965H736.136C739.406 303.965 741.68 303.27 742.958 301.879C744.273 300.488 744.931 298.665 744.931 296.41C744.931 294.982 744.63 293.741 744.029 292.689C743.465 291.636 742.525 290.828 741.21 290.264C739.894 289.663 738.09 289.362 735.797 289.362H728.693ZM778.719 278.03V308.25H774.772L774.039 304.247H773.814C773.212 305.299 772.423 306.164 771.446 306.84C770.506 307.517 769.473 308.006 768.345 308.306C767.217 308.645 766.033 308.814 764.793 308.814C762.538 308.814 760.64 308.438 759.098 307.686C757.557 306.897 756.392 305.694 755.603 304.078C754.851 302.462 754.475 300.375 754.475 297.82V278.03H759.437V297.481C759.437 299.887 759.944 301.691 760.959 302.894C761.974 304.097 763.534 304.698 765.639 304.698C767.706 304.698 769.322 304.285 770.487 303.458C771.69 302.593 772.536 301.353 773.025 299.736C773.551 298.083 773.814 296.091 773.814 293.76V278.03H778.719ZM789.77 278.03V308.25H784.865V278.03H789.77ZM787.346 266.697C788.097 266.697 788.755 266.96 789.319 267.487C789.883 267.975 790.165 268.765 790.165 269.855C790.165 270.907 789.883 271.696 789.319 272.223C788.755 272.749 788.097 273.012 787.346 273.012C786.556 273.012 785.88 272.749 785.316 272.223C784.752 271.696 784.47 270.907 784.47 269.855C784.47 268.765 784.752 267.975 785.316 267.487C785.88 266.96 786.556 266.697 787.346 266.697ZM800.77 308.25H795.865V265.4H800.77V308.25ZM816.619 304.754C817.333 304.754 818.066 304.698 818.818 304.585C819.57 304.435 820.19 304.285 820.679 304.134V307.912C820.153 308.175 819.401 308.382 818.424 308.532C817.484 308.72 816.582 308.814 815.717 308.814C814.214 308.814 812.823 308.551 811.545 308.024C810.267 307.461 809.233 306.502 808.444 305.149C807.692 303.796 807.316 301.898 807.316 299.455V281.864H803.313V279.496L807.429 277.522L809.29 271.095H812.222V278.03H820.453V281.864H812.222V299.342C812.222 301.184 812.635 302.556 813.462 303.458C814.289 304.322 815.341 304.754 816.619 304.754ZM856.304 308.25H835.105V267.994H856.304V272.448H840.123V285.021H855.346V289.419H840.123V303.796H856.304V308.25ZM874.991 277.466C878.374 277.466 880.93 278.349 882.659 280.116C884.425 281.845 885.309 284.664 885.309 288.573V308.25H880.403V288.911C880.403 286.468 879.896 284.645 878.881 283.442C877.866 282.24 876.306 281.638 874.201 281.638C871.119 281.638 868.977 282.578 867.774 284.457C866.609 286.337 866.026 289.043 866.026 292.576V308.25H861.121V278.03H865.068L865.801 282.146H866.083C866.684 281.093 867.455 280.229 868.394 279.552C869.334 278.838 870.368 278.312 871.495 277.973C872.623 277.635 873.788 277.466 874.991 277.466ZM897.542 308.25L886.774 278.03H892.017L897.993 295.846C898.294 296.673 898.595 297.594 898.895 298.609C899.196 299.624 899.459 300.601 899.685 301.541C899.948 302.443 900.117 303.213 900.192 303.852H900.418C900.531 303.213 900.718 302.424 900.982 301.484C901.245 300.545 901.527 299.567 901.827 298.552C902.166 297.538 902.466 296.636 902.729 295.846L908.706 278.03H913.949L903.124 308.25H897.542ZM920.569 278.03V308.25H915.664V278.03H920.569ZM918.145 266.697C918.897 266.697 919.555 266.96 920.118 267.487C920.682 267.975 920.964 268.765 920.964 269.855C920.964 270.907 920.682 271.696 920.118 272.223C919.555 272.749 918.897 273.012 918.145 273.012C917.356 273.012 916.679 272.749 916.115 272.223C915.552 271.696 915.27 270.907 915.27 269.855C915.27 268.765 915.552 267.975 916.115 267.487C916.679 266.96 917.356 266.697 918.145 266.697ZM940.139 277.466C940.665 277.466 941.229 277.504 941.83 277.579C942.432 277.616 942.958 277.692 943.409 277.804L942.845 282.371C942.394 282.258 941.887 282.164 941.323 282.089C940.797 282.014 940.289 281.976 939.801 281.976C938.711 281.976 937.677 282.221 936.7 282.709C935.722 283.198 934.839 283.893 934.05 284.796C933.298 285.66 932.697 286.712 932.246 287.953C931.795 289.193 931.569 290.584 931.569 292.125V308.25H926.664V278.03H930.667L931.231 283.555H931.456C932.058 282.428 932.772 281.413 933.599 280.511C934.463 279.571 935.441 278.838 936.531 278.312C937.621 277.748 938.823 277.466 940.139 277.466ZM969.687 293.084C969.687 295.602 969.367 297.838 968.728 299.793C968.127 301.71 967.243 303.345 966.078 304.698C964.913 306.051 963.503 307.085 961.85 307.799C960.196 308.476 958.354 308.814 956.324 308.814C954.445 308.814 952.697 308.476 951.081 307.799C949.502 307.085 948.111 306.051 946.909 304.698C945.743 303.345 944.841 301.71 944.202 299.793C943.563 297.838 943.244 295.602 943.244 293.084C943.244 289.738 943.77 286.919 944.823 284.626C945.913 282.296 947.454 280.529 949.446 279.327C951.438 278.086 953.787 277.466 956.493 277.466C959.087 277.466 961.361 278.086 963.316 279.327C965.308 280.529 966.868 282.296 967.995 284.626C969.123 286.919 969.687 289.738 969.687 293.084ZM948.318 293.084C948.318 295.452 948.6 297.519 949.164 299.285C949.728 301.014 950.611 302.349 951.814 303.288C953.017 304.228 954.558 304.698 956.437 304.698C958.316 304.698 959.857 304.228 961.06 303.288C962.263 302.349 963.146 301.014 963.71 299.285C964.312 297.519 964.612 295.452 964.612 293.084C964.612 290.678 964.312 288.629 963.71 286.938C963.146 285.247 962.263 283.95 961.06 283.048C959.857 282.108 958.298 281.638 956.381 281.638C953.562 281.638 951.513 282.653 950.235 284.683C948.957 286.712 948.318 289.513 948.318 293.084ZM988.028 277.466C991.411 277.466 993.967 278.349 995.696 280.116C997.462 281.845 998.346 284.664 998.346 288.573V308.25H993.441V288.911C993.441 286.468 992.933 284.645 991.918 283.442C990.903 282.24 989.344 281.638 987.239 281.638C984.157 281.638 982.014 282.578 980.811 284.457C979.646 286.337 979.063 289.043 979.063 292.576V308.25H974.158V278.03H978.105L978.838 282.146H979.12C979.721 281.093 980.492 280.229 981.431 279.552C982.371 278.838 983.405 278.312 984.532 277.973C985.66 277.635 986.825 277.466 988.028 277.466ZM1035.67 277.466C1038.9 277.466 1041.31 278.349 1042.89 280.116C1044.46 281.845 1045.25 284.664 1045.25 288.573V308.25H1040.41V288.799C1040.41 286.431 1039.94 284.645 1039 283.442C1038.09 282.24 1036.67 281.638 1034.71 281.638C1032 281.638 1030.07 282.484 1028.9 284.175C1027.78 285.867 1027.21 288.329 1027.21 291.561V308.25H1022.31V288.799C1022.31 287.22 1022.1 285.904 1021.69 284.852C1021.27 283.762 1020.65 282.954 1019.83 282.428C1019 281.901 1017.93 281.638 1016.61 281.638C1014.73 281.638 1013.25 282.07 1012.16 282.935C1011.07 283.762 1010.3 284.983 1009.85 286.6C1009.4 288.216 1009.17 290.208 1009.17 292.576V308.25H1004.26V278.03H1008.21L1008.94 282.146H1009.23C1009.83 281.093 1010.56 280.229 1011.43 279.552C1012.29 278.838 1013.25 278.312 1014.3 277.973C1015.35 277.635 1016.44 277.466 1017.57 277.466C1019.75 277.466 1021.57 277.879 1023.04 278.706C1024.51 279.533 1025.58 280.811 1026.25 282.54H1026.59C1027.53 280.811 1028.81 279.533 1030.43 278.706C1032.08 277.879 1033.83 277.466 1035.67 277.466ZM1062.22 277.466C1064.66 277.466 1066.76 278.03 1068.53 279.157C1070.3 280.285 1071.65 281.883 1072.59 283.95C1073.57 285.98 1074.06 288.366 1074.06 291.11V294.098H1054.66C1054.74 297.519 1055.54 300.131 1057.08 301.935C1058.63 303.702 1060.79 304.585 1063.57 304.585C1065.37 304.585 1066.97 304.416 1068.36 304.078C1069.79 303.702 1071.25 303.176 1072.76 302.499V306.84C1071.29 307.517 1069.85 308.006 1068.42 308.306C1067.03 308.645 1065.33 308.814 1063.34 308.814C1060.64 308.814 1058.25 308.231 1056.18 307.066C1054.12 305.901 1052.5 304.172 1051.33 301.879C1050.17 299.549 1049.59 296.711 1049.59 293.365C1049.59 290.058 1050.11 287.22 1051.16 284.852C1052.22 282.484 1053.68 280.661 1055.56 279.383C1057.48 278.105 1059.7 277.466 1062.22 277.466ZM1062.22 281.525C1060.04 281.525 1058.31 282.296 1057.03 283.837C1055.75 285.341 1055 287.445 1054.77 290.152H1068.98C1068.98 288.423 1068.74 286.919 1068.25 285.641C1067.76 284.363 1067.01 283.367 1065.99 282.653C1065.02 281.901 1063.76 281.525 1062.22 281.525ZM1092.22 277.466C1095.61 277.466 1098.16 278.349 1099.89 280.116C1101.66 281.845 1102.54 284.664 1102.54 288.573V308.25H1097.64V288.911C1097.64 286.468 1097.13 284.645 1096.11 283.442C1095.1 282.24 1093.54 281.638 1091.43 281.638C1088.35 281.638 1086.21 282.578 1085.01 284.457C1083.84 286.337 1083.26 289.043 1083.26 292.576V308.25H1078.35V278.03H1082.3L1083.03 282.146H1083.31C1083.92 281.093 1084.69 280.229 1085.63 279.552C1086.57 278.838 1087.6 278.312 1088.73 277.973C1089.85 277.635 1091.02 277.466 1092.22 277.466ZM1118.21 304.754C1118.93 304.754 1119.66 304.698 1120.41 304.585C1121.16 304.435 1121.78 304.285 1122.27 304.134V307.912C1121.75 308.175 1120.99 308.382 1120.02 308.532C1119.08 308.72 1118.18 308.814 1117.31 308.814C1115.81 308.814 1114.42 308.551 1113.14 308.024C1111.86 307.461 1110.83 306.502 1110.04 305.149C1109.29 303.796 1108.91 301.898 1108.91 299.455V281.864H1104.91V279.496L1109.02 277.522L1110.88 271.095H1113.82V278.03H1122.05V281.864H1113.82V299.342C1113.82 301.184 1114.23 302.556 1115.06 303.458C1115.88 304.322 1116.94 304.754 1118.21 304.754Z" fill="#E9F4FC"/>
<defs>
<clipPath id="clip0_986_1969">
<rect width="320" height="320" fill="white"/>
</clipPath>
</defs>
</svg>
